STARTFONT 2.3
FONT -FontForge-Satisfy-Book-R-Normal--18-180-72-72-P-78-ISO10646-1
SIZE 18 72 72  2
FONTBOUNDINGBOX 21 26 -4 -9
COMMENT "Generated by fontforge, http://fontforge.sourceforge.net"
COMMENT "Copyright (c) 2011 by Font Diner, Inc. All rights reserved."
STARTPROPERTIES 40
FOUNDRY "FontForge"
FAMILY_NAME "Satisfy"
WEIGHT_NAME "Book"
SLANT "R"
SETWIDTH_NAME "Normal"
ADD_STYLE_NAME ""
PIXEL_SIZE 18
POINT_SIZE 180
RESOLUTION_X 72
RESOLUTION_Y 72
SPACING "P"
AVERAGE_WIDTH 78
CHARSET_REGISTRY "ISO10646"
CHARSET_ENCODING "1"
FONTNAME_REGISTRY ""
CHARSET_COLLECTIONS "ISO10646-1"
BITS_PER_PIXEL 2
FONT_NAME "Satisfy-Regular"
FACE_NAME "Satisfy Regular"
COPYRIGHT "Copyright (c) 2011 by Font Diner, Inc. All rights reserved."
FONT_VERSION "1.001"
FONT_ASCENT 14
FONT_DESCENT 4
UNDERLINE_POSITION -2
UNDERLINE_THICKNESS 1
X_HEIGHT 7
CAP_HEIGHT 13
RAW_ASCENT 799
RAW_DESCENT 200
NORM_SPACE 5
RELATIVE_WEIGHT 40
RELATIVE_SETWIDTH 50
SUPERSCRIPT_X 0
SUPERSCRIPT_Y 8
SUPERSCRIPT_SIZE 11
SUBSCRIPT_X 0
SUBSCRIPT_Y 2
SUBSCRIPT_SIZE 11
AVG_LOWERCASE_WIDTH 73
AVG_UPPERCASE_WIDTH 101
ENDPROPERTIES
CHARS 227
STARTCHAR space
ENCODING 32
SWIDTH 280 0
DWIDTH 5 0
BBX 1 1 0 0
BITMAP
00
ENDCHAR
STARTCHAR exclam
ENCODING 33
SWIDTH 249 0
DWIDTH 4 0
BBX 6 14 -1 -1
BITMAP
00E0
01D0
02C0
02C0
0380
0740
0700
0A00
0E00
1D00
1400
0400
7C00
1000
ENDCHAR
STARTCHAR quotedbl
ENCODING 34
SWIDTH 249 0
DWIDTH 4 0
BBX 6 5 0 8
BITMAP
1DA0
1CD0
29C0
3680
7280
ENDCHAR
STARTCHAR numbersign
ENCODING 35
SWIDTH 417 0
DWIDTH 8 0
BBX 8 9 0 2
BITMAP
024C
0318
6FFE
5E74
0C60
BFFC
79D0
31C0
6240
ENDCHAR
STARTCHAR dollar
ENCODING 36
SWIDTH 292 0
DWIDTH 5 0
BBX 7 13 -1 0
BITMAP
0060
01A0
0618
0D1C
0D28
0A00
0700
0380
11C0
A0C0
6180
2E00
1800
ENDCHAR
STARTCHAR percent
ENCODING 37
SWIDTH 574 0
DWIDTH 10 0
BBX 10 14 0 -1
BITMAP
0B8070
28D0D0
309280
70C600
719D00
3F2400
04A000
01C780
035C90
0A24A0
1D3090
3831C0
B02F40
400400
ENDCHAR
STARTCHAR ampersand
ENCODING 38
SWIDTH 460 0
DWIDTH 8 0
BBX 9 15 -1 -1
BITMAP
000500
002B40
00A240
00D600
00EC00
00F400
02D000
0BD000
1DE000
38E000
B0B040
E0B240
B07D00
7EFC00
152900
ENDCHAR
STARTCHAR quotesingle
ENCODING 39
SWIDTH 113 0
DWIDTH 2 0
BBX 4 5 0 8
BITMAP
1D
1C
28
34
70
ENDCHAR
STARTCHAR parenleft
ENCODING 40
SWIDTH 234 0
DWIDTH 4 0
BBX 6 17 0 -2
BITMAP
0010
00D0
0280
0700
0A00
1C00
2800
3800
3400
7000
7000
A000
A000
A000
6000
7000
2000
ENDCHAR
STARTCHAR parenright
ENCODING 41
SWIDTH 204 0
DWIDTH 4 0
BBX 6 17 -2 -2
BITMAP
0040
00C0
00D0
0090
00D0
00D0
00D0
01D0
01C0
0280
0340
0700
0A00
0D00
2800
7000
9000
ENDCHAR
STARTCHAR asterisk
ENCODING 42
SWIDTH 327 0
DWIDTH 6 0
BBX 6 6 1 7
BITMAP
0740
9600
BEF0
1E40
B780
1240
ENDCHAR
STARTCHAR plus
ENCODING 43
SWIDTH 350 0
DWIDTH 6 0
BBX 6 7 0 3
BITMAP
0140
0340
0740
FFF0
4A00
0D00
0400
ENDCHAR
STARTCHAR comma
ENCODING 44
SWIDTH 200 0
DWIDTH 4 0
BBX 3 4 -1 -2
BITMAP
10
78
34
20
ENDCHAR
STARTCHAR hyphen
ENCODING 45
SWIDTH 353 0
DWIDTH 6 0
BBX 6 3 0 4
BITMAP
1550
FFF0
4000
ENDCHAR
STARTCHAR period
ENCODING 46
SWIDTH 213 0
DWIDTH 4 0
BBX 3 3 -1 -1
BITMAP
14
78
10
ENDCHAR
STARTCHAR slash
ENCODING 47
SWIDTH 262 0
DWIDTH 5 0
BBX 9 15 -2 -1
BITMAP
000040
000280
000700
000D00
001800
003400
00A000
01C000
028000
070000
0A0000
1C0000
380000
700000
400000
ENDCHAR
STARTCHAR zero
ENCODING 48
SWIDTH 489 0
DWIDTH 9 0
BBX 8 15 0 -1
BITMAP
0010
00BC
038A
0B07
0D07
2C07
3807
740B
740E
741D
702C
7438
34B0
2EC0
0500
ENDCHAR
STARTCHAR one
ENCODING 49
SWIDTH 272 0
DWIDTH 5 0
BBX 5 14 0 -1
BITMAP
0740
0F40
0700
0B00
0A00
0D00
0D00
1C00
2800
3400
7400
B000
B000
1000
ENDCHAR
STARTCHAR two
ENCODING 50
SWIDTH 448 0
DWIDTH 8 0
BBX 9 15 -1 -1
BITMAP
000400
00AB40
028380
074380
070380
000700
000E00
002C00
00B000
02D000
0B4000
2C0000
76A800
7FFC00
100400
ENDCHAR
STARTCHAR three
ENCODING 51
SWIDTH 462 0
DWIDTH 8 0
BBX 8 15 0 -1
BITMAP
0010
07ED
0E0B
2C0B
1D0E
002C
0074
02D0
0674
002C
0028
A038
F0B0
7EC0
1500
ENDCHAR
STARTCHAR four
ENCODING 52
SWIDTH 452 0
DWIDTH 8 0
BBX 8 14 0 -1
BITMAP
002E
007D
01DC
075C
0E28
3824
B578
BEFC
00B0
00E0
00E0
01E0
01D0
0040
ENDCHAR
STARTCHAR five
ENCODING 53
SWIDTH 444 0
DWIDTH 8 0
BBX 9 14 0 -1
BITMAP
02FF40
065B40
090000
0C0000
180000
2AF400
3E6800
241800
002800
102400
A06000
F5D000
BF4000
140000
ENDCHAR
STARTCHAR six
ENCODING 54
SWIDTH 477 0
DWIDTH 9 0
BBX 8 15 0 -1
BITMAP
0004
00BD
028A
074E
0E04
1D50
2EAC
3F0D
7D0D
740D
741C
7428
3870
1ED0
0500
ENDCHAR
STARTCHAR seven
ENCODING 55
SWIDTH 406 0
DWIDTH 7 0
BBX 7 14 1 -1
BITMAP
7FFC
B95C
0034
00A0
01C0
0380
0B00
0D00
2C00
3800
B400
F000
E000
4000
ENDCHAR
STARTCHAR eight
ENCODING 56
SWIDTH 444 0
DWIDTH 8 0
BBX 8 15 0 -1
BITMAP
0010
01A9
0707
0A06
0A1D
0B78
07E0
0BD0
2DE0
70B0
E074
D074
D0A0
A680
1500
ENDCHAR
STARTCHAR nine
ENCODING 57
SWIDTH 462 0
DWIDTH 8 0
BBX 8 15 0 -1
BITMAP
0010
01EC
0709
0D06
1C06
280E
381E
383D
2CAD
0F9C
0038
50B0
B6D0
7F40
1400
ENDCHAR
STARTCHAR colon
ENCODING 58
SWIDTH 226 0
DWIDTH 4 0
BBX 4 6 -1 -1
BITMAP
1E
19
00
14
78
10
ENDCHAR
STARTCHAR semicolon
ENCODING 59
SWIDTH 212 0
DWIDTH 4 0
BBX 4 7 -1 -2
BITMAP
2D
18
00
10
78
34
20
ENDCHAR
STARTCHAR less
ENCODING 60
SWIDTH 271 0
DWIDTH 5 0
BBX 5 8 0 2
BITMAP
0040
0780
1E00
B400
E000
7000
3800
1D00
ENDCHAR
STARTCHAR equal
ENCODING 61
SWIDTH 374 0
DWIDTH 7 0
BBX 7 4 0 4
BITMAP
2FF4
5550
6AA0
A550
ENDCHAR
STARTCHAR greater
ENCODING 62
SWIDTH 250 0
DWIDTH 5 0
BBX 6 8 -1 2
BITMAP
0400
0A00
0740
02C0
02D0
0B40
2D00
A000
ENDCHAR
STARTCHAR question
ENCODING 63
SWIDTH 413 0
DWIDTH 7 0
BBX 9 15 0 -1
BITMAP
005000
0BAE00
2D0740
380740
140B00
000E00
002800
06E000
1D0000
280000
380000
600000
100000
F40000
500000
ENDCHAR
STARTCHAR at
ENCODING 64
SWIDTH 648 0
DWIDTH 12 0
BBX 13 13 -1 -1
BITMAP
00065000
00A56800
07410900
0D1EA300
2875E340
34D1D240
7280C340
62428300
728B0A00
35FB1C00
1C077400
07929000
00400000
ENDCHAR
STARTCHAR A
ENCODING 65
SWIDTH 552 0
DWIDTH 10 0
BBX 11 18 -2 -4
BITMAP
000010
0001F8
00075C
000D18
002828
007434
00B034
00E074
01D070
02C0B0
07FFF8
6B55E0
0B01D0
0E01D0
2E01D0
3D02D0
7802D0
4001E0
ENDCHAR
STARTCHAR B
ENCODING 66
SWIDTH 607 0
DWIDTH 11 0
BBX 11 18 0 -4
BITMAP
005400
02FBD0
1FD0B0
1AC074
0380B4
0740F0
0701D0
0A0780
0EAE00
1EE740
2C02C0
3801D0
3802D0
7403C0
B00B80
F02E00
FAF400
150000
ENDCHAR
STARTCHAR C
ENCODING 67
SWIDTH 548 0
DWIDTH 10 0
BBX 10 18 0 -4
BITMAP
000500
007ED0
01E0A0
0780B0
0F00F0
1E01E0
2C02D0
380000
740000
B40000
F00000
F00000
F00000
F00100
B40600
382800
1FE000
010000
ENDCHAR
STARTCHAR D
ENCODING 68
SWIDTH 632 0
DWIDTH 11 0
BBX 11 18 0 -4
BITMAP
001000
07FE40
0E46D0
0440B0
038074
078038
074038
0B0038
0B0078
0E00B4
1D00B0
1C01E0
2802C0
380740
741E00
B07800
BFD000
040000
ENDCHAR
STARTCHAR E
ENCODING 69
SWIDTH 523 0
DWIDTH 9 0
BBX 11 18 -1 -4
BITMAP
000140
002EB0
00E028
03C038
078074
0B41F0
0B4040
078000
01E400
02ED00
1E0000
380000
740040
B40080
780240
3D1A00
1BF800
004000
ENDCHAR
STARTCHAR F
ENCODING 70
SWIDTH 585 0
DWIDTH 11 0
BBX 11 17 0 -3
BITMAP
000500
06FFE0
2D0074
780070
3F40A0
0900D0
000280
000740
0FFFE0
050D00
002C00
003800
007400
00F000
01E000
01E000
02E000
ENDCHAR
STARTCHAR G
ENCODING 71
SWIDTH 612 0
DWIDTH 11 0
BBX 10 18 0 -4
BITMAP
000100
002ED0
00B0A0
02C070
0740B0
0F01E0
1E02D0
2D0000
3C0000
781560
B47BE0
B401C0
B40280
B00740
740A00
382C00
1EA000
014000
ENDCHAR
STARTCHAR H
ENCODING 72
SWIDTH 649 0
DWIDTH 12 0
BBX 12 17 0 -4
BITMAP
01D00A
02C01D
03802C
074038
070074
0B0070
0E00A0
1E6AF8
3EE6F8
2C35C0
381E80
380B40
740B40
B00B00
F00B00
F00A00
400000
ENDCHAR
STARTCHAR I
ENCODING 73
SWIDTH 537 0
DWIDTH 10 0
BBX 12 17 -2 -4
BITMAP
0001F8
000798
000F28
001E28
001D38
001C74
001CB0
000DB0
0004E0
006AF9
0BE6C0
2D0380
780740
780A00
2D1C00
0BB400
004000
ENDCHAR
STARTCHAR J
ENCODING 74
SWIDTH 500 0
DWIDTH 9 0
BBX 13 17 -2 -4
BITMAP
000FFF40
00057900
00007400
0000B000
0000E000
0000E000
0001D000
0002C000
0283C000
0F878000
2D074000
380B0000
700E0000
701C0000
70340000
29E00000
05400000
ENDCHAR
STARTCHAR K
ENCODING 75
SWIDTH 497 0
DWIDTH 9 0
BBX 11 18 -1 -5
BITMAP
00E038
01D078
02C074
0380F0
0341D0
070780
0B1E00
0E7800
1FE400
2E6E00
2C0E00
280E00
381D00
742C00
B43800
B43800
002D00
000B90
ENDCHAR
STARTCHAR L
ENCODING 76
SWIDTH 492 0
DWIDTH 9 0
BBX 12 17 -2 -4
BITMAP
0000BD
0001DE
00038D
00076C
0007B4
051BD0
06FE00
000D00
001C00
002C00
003800
007000
00A000
6FD000
A7F420
792FF0
000540
ENDCHAR
STARTCHAR M
ENCODING 77
SWIDTH 733 0
DWIDTH 13 0
BBX 15 17 -2 -4
BITMAP
0007807C
000F80BC
001E81E8
002A82A8
003A8374
00774A70
00B34DB0
00A358A0
04E374D0
25D7B1D0
31C3E1C0
A2C3D2C0
9383C380
97418380
AB0003C0
7E0003D0
04000040
ENDCHAR
STARTCHAR N
ENCODING 78
SWIDTH 541 0
DWIDTH 10 0
BBX 13 17 -1 -3
BITMAP
00000100
01D01F40
02D03A40
03D07240
07D0A600
06A1FC00
0AA2E000
0DA1C000
1C61C000
1C628000
28628000
38634000
74774000
743B0000
B43E0000
B42E0000
B41D0000
ENDCHAR
STARTCHAR O
ENCODING 79
SWIDTH 567 0
DWIDTH 10 0
BBX 10 18 0 -4
BITMAP
001400
00BF40
02E280
0741C0
0E01D0
1D01D0
2C01D0
3801D0
7401C0
B002C0
B00280
B00340
B00740
B00E00
B01D00
747400
2EE000
050000
ENDCHAR
STARTCHAR P
ENCODING 80
SWIDTH 552 0
DWIDTH 10 0
BBX 12 17 -1 -3
BITMAP
000140
01BAF0
0BE038
0DD02C
00D02D
01C02C
028038
0340B4
0342D0
071B40
0BE400
0E0000
1E0000
1D0000
2C0000
380000
B40000
ENDCHAR
STARTCHAR Q
ENCODING 81
SWIDTH 583 0
DWIDTH 11 0
BBX 10 18 0 -4
BITMAP
000400
00BB40
02D1D0
0B40E0
0E00A0
2D00A0
3800A0
7800E0
7400D0
B401D0
7402C0
380780
1D0B00
055D00
2EF800
75FD00
3F8790
040040
ENDCHAR
STARTCHAR R
ENCODING 82
SWIDTH 560 0
DWIDTH 10 0
BBX 12 19 -1 -5
BITMAP
000140
01BAF4
07E03C
09A01D
00D01D
01C02D
01C03C
028074
0381E0
0FEB40
0FFC00
0B0D00
0E0D00
1E0A00
2D0A00
3C0B00
780B40
0007E0
000140
ENDCHAR
STARTCHAR S
ENCODING 83
SWIDTH 474 0
DWIDTH 9 0
BBX 10 18 -1 -4
BITMAP
000500
00BAD0
02D0A0
0740B0
0B00E0
0B01D0
078000
02D000
00F400
007C00
002D00
001D00
140D00
B00D00
B01C00
B43400
3EE000
050000
ENDCHAR
STARTCHAR T
ENCODING 84
SWIDTH 423 0
DWIDTH 8 0
BBX 10 17 0 -4
BITMAP
2FFFE0
79B540
00E000
00E000
01D000
02C000
028000
034000
074000
0B0000
0A0000
0E0000
1D0000
1D0000
2C0000
3C0000
100000
ENDCHAR
STARTCHAR U
ENCODING 85
SWIDTH 574 0
DWIDTH 10 0
BBX 11 17 0 -4
BITMAP
02C03C
078078
0B40B4
0F00F0
1E01E0
1D01D0
2C02C0
380380
340340
740740
B00B00
B00F00
A01E00
B03E00
B4AA00
7F8700
040000
ENDCHAR
STARTCHAR V
ENCODING 86
SWIDTH 503 0
DWIDTH 9 0
BBX 10 17 0 -4
BITMAP
0B00A0
1E00E0
1D02D0
2C0380
280740
380B00
340E00
341D00
742C00
343800
343400
347000
34A000
28C000
1E8000
0F0000
050000
ENDCHAR
STARTCHAR W
ENCODING 87
SWIDTH 817 0
DWIDTH 15 0
BBX 15 18 0 -4
BITMAP
00000010
02C000B4
0741C074
0B03C074
0E03C074
1D078070
2C0740B0
380700A0
740B00D0
700E01D0
701E02C0
B02E0380
A03E0740
607A0A00
70D60D00
36876800
2F03E000
04004000
ENDCHAR
STARTCHAR X
ENCODING 88
SWIDTH 579 0
DWIDTH 10 0
BBX 13 18 -1 -4
BITMAP
01400000
0AD007C0
0CB00F40
1C702C00
1E74B400
0BF5E000
012A8000
002F4000
002D0000
002C0000
00BC0000
01EC0000
02CD0000
074D0000
1E0A0000
3C070900
B403F400
00004000
ENDCHAR
STARTCHAR Y
ENCODING 89
SWIDTH 532 0
DWIDTH 10 0
BBX 10 17 0 -4
BITMAP
0740B0
0B00F0
0E01E0
1D01D0
2C02C0
280380
380740
740B40
701F00
742A00
3ED900
1A4D00
001C00
103400
B9E000
BF8000
040000
ENDCHAR
STARTCHAR Z
ENCODING 90
SWIDTH 455 0
DWIDTH 8 0
BBX 11 16 -2 -3
BITMAP
01FFF8
02E57C
000038
0000B4
0001E0
000380
000B00
002D00
007400
01E000
038000
0B0000
1D0000
380000
7AFF40
7EAF00
ENDCHAR
STARTCHAR bracketleft
ENCODING 91
SWIDTH 202 0
DWIDTH 4 0
BBX 7 17 -1 -2
BITMAP
00B4
01D0
0280
0340
0300
0600
0A00
0D00
1C00
1800
2800
3400
3000
7000
A000
A000
B800
ENDCHAR
STARTCHAR backslash
ENCODING 92
SWIDTH 273 0
DWIDTH 5 0
BBX 4 14 0 -1
BITMAP
70
34
34
34
28
28
1C
1C
0D
0D
0A
0B
07
01
ENDCHAR
STARTCHAR bracketright
ENCODING 93
SWIDTH 216 0
DWIDTH 4 0
BBX 7 17 -2 -2
BITMAP
00F4
0074
0030
0070
0060
00A0
00D0
00C0
01C0
0280
0340
0300
0600
0A00
0D00
2C00
B800
ENDCHAR
STARTCHAR asciicircum
ENCODING 94
SWIDTH 287 0
DWIDTH 5 0
BBX 6 7 0 6
BITMAP
03C0
0AC0
1DD0
28D0
70D0
D0A0
4050
ENDCHAR
STARTCHAR underscore
ENCODING 95
SWIDTH 439 0
DWIDTH 8 0
BBX 9 2 -2 0
BITMAP
155500
FFFFC0
ENDCHAR
STARTCHAR grave
ENCODING 96
SWIDTH 567 0
DWIDTH 10 0
BBX 4 3 4 10
BITMAP
10
78
0A
ENDCHAR
STARTCHAR a
ENCODING 97
SWIDTH 435 0
DWIDTH 8 0
BBX 10 9 -1 -1
BITMAP
005000
02F000
0A2800
1C2800
383420
347090
75B140
3E3E00
000400
ENDCHAR
STARTCHAR b
ENCODING 98
SWIDTH 415 0
DWIDTH 7 0
BBX 9 14 0 -1
BITMAP
024000
0B4000
0F0000
1F0000
2E0000
3D0000
7C5000
75E580
B0B900
A0A000
90D000
A28000
7E0000
040000
ENDCHAR
STARTCHAR c
ENCODING 99
SWIDTH 363 0
DWIDTH 7 0
BBX 8 9 0 -1
BITMAP
0140
1EC0
76C0
A141
D006
D008
D060
7A80
1500
ENDCHAR
STARTCHAR d
ENCODING 100
SWIDTH 483 0
DWIDTH 9 0
BBX 10 14 0 -1
BITMAP
000100
000740
000B40
000F40
001F00
001E00
1AAD00
34B800
A07400
D06020
C0D080
D6D240
B9B900
001000
ENDCHAR
STARTCHAR e
ENCODING 101
SWIDTH 372 0
DWIDTH 7 0
BBX 8 9 0 -1
BITMAP
0140
0AC0
35C0
B240
E902
E008
E060
7A80
1500
ENDCHAR
STARTCHAR f
ENCODING 102
SWIDTH 325 0
DWIDTH 6 0
BBX 10 22 -2 -9
BITMAP
005400
00B400
007400
00B000
00A000
00D000
01C000
018150
02EA40
0B4000
0E0000
0B4000
0DD000
1C7000
183400
283400
343400
70B000
71D000
B78000
BE0000
140000
ENDCHAR
STARTCHAR g
ENCODING 103
SWIDTH 459 0
DWIDTH 8 0
BBX 11 17 -1 -9
BITMAP
004000
07A600
0D2D00
182D00
241C14
342860
387A80
2F7D00
04B400
02F000
0AA000
28D000
30D000
71C000
328000
2F4000
0A0000
ENDCHAR
STARTCHAR h
ENCODING 104
SWIDTH 465 0
DWIDTH 8 0
BBX 10 14 0 -1
BITMAP
010000
0B0000
0B0000
0E0000
1D0000
1C0000
29F000
3A7400
787400
70B050
A0E180
E0D600
D0F800
404000
ENDCHAR
STARTCHAR i
ENCODING 105
SWIDTH 274 0
DWIDTH 5 0
BBX 6 12 0 0
BITMAP
0100
0B00
0500
0000
0000
2800
3800
7400
7020
A090
A240
7D00
ENDCHAR
STARTCHAR j
ENCODING 106
SWIDTH 267 0
DWIDTH 5 0
BBX 10 20 -4 -8
BITMAP
000200
000700
000000
000000
000000
001800
003800
003400
007020
00B080
00E600
00E800
01D000
07C000
1E8000
374000
A34000
970000
9A0000
280000
ENDCHAR
STARTCHAR k
ENCODING 107
SWIDTH 440 0
DWIDTH 8 0
BBX 10 14 -1 -1
BITMAP
014000
03C000
038000
034000
070000
0A0000
097C00
0E9C00
1E2400
1AE020
257090
306180
70BE00
102400
ENDCHAR
STARTCHAR l
ENCODING 108
SWIDTH 218 0
DWIDTH 4 0
BBX 5 14 -1 -1
BITMAP
0040
02C0
0380
0380
0740
0B00
0A00
0D00
1D00
1C00
2800
3400
7400
1000
ENDCHAR
STARTCHAR m
ENCODING 109
SWIDTH 717 0
DWIDTH 13 0
BBX 14 8 0 -1
BITMAP
14B4B400
3ABAB800
3D3D3400
78387420
B070B090
A0A0A180
E0D0BA00
40401400
ENDCHAR
STARTCHAR n
ENCODING 110
SWIDTH 461 0
DWIDTH 8 0
BBX 11 8 -1 -1
BITMAP
067800
0EAD00
1E1C04
1C2C14
282860
343580
743E00
001400
ENDCHAR
STARTCHAR o
ENCODING 111
SWIDTH 393 0
DWIDTH 7 0
BBX 9 8 0 -1
BITMAP
1F4000
74D040
B49600
E9F800
C6C000
D28000
BA0000
140000
ENDCHAR
STARTCHAR p
ENCODING 112
SWIDTH 451 0
DWIDTH 8 0
BBX 12 15 -2 -8
BITMAP
029A00
03E740
038340
070709
0A0A18
0BAD60
0FFF80
1C5400
280000
280000
340000
740000
B00000
A00000
500000
ENDCHAR
STARTCHAR q
ENCODING 113
SWIDTH 462 0
DWIDTH 8 0
BBX 9 15 0 -8
BITMAP
0A9800
38B800
707400
E07000
E0B040
D0E140
B6D600
15D800
01E000
02C000
034000
0B4000
0B4000
0B4000
074000
ENDCHAR
STARTCHAR r
ENCODING 114
SWIDTH 406 0
DWIDTH 7 0
BBX 11 10 -2 -1
BITMAP
004000
01D000
03D000
02FC00
070D00
091C14
183460
247180
607A00
001400
ENDCHAR
STARTCHAR s
ENCODING 115
SWIDTH 351 0
DWIDTH 6 0
BBX 5 9 0 -1
BITMAP
0B00
1E00
1E00
2700
9340
02C0
7180
7A40
1800
ENDCHAR
STARTCHAR t
ENCODING 116
SWIDTH 301 0
DWIDTH 5 0
BBX 9 14 -1 -1
BITMAP
004000
01D000
02D000
ABFE40
5B8100
074000
0B0000
0E0000
0D0100
1C0500
181800
186000
0FC000
010000
ENDCHAR
STARTCHAR u
ENCODING 117
SWIDTH 468 0
DWIDTH 8 0
BBX 10 8 0 -1
BITMAP
142400
747400
B0B010
A0B050
D0D080
E1D200
BE7C00
041000
ENDCHAR
STARTCHAR v
ENCODING 118
SWIDTH 427 0
DWIDTH 8 0
BBX 10 8 0 -1
BITMAP
602800
B07400
A0B090
A0FA00
A18000
B70000
7C0000
100000
ENDCHAR
STARTCHAR w
ENCODING 119
SWIDTH 646 0
DWIDTH 12 0
BBX 13 8 0 -1
BITMAP
24747000
74B0F000
B0A0E080
A090FA00
A0C1C000
92934000
797A0000
14040000
ENDCHAR
STARTCHAR x
ENCODING 120
SWIDTH 399 0
DWIDTH 7 0
BBX 9 9 -1 -1
BITMAP
040000
1D1D00
0E7800
07E000
078000
0B4080
2AC600
A0F800
405000
ENDCHAR
STARTCHAR y
ENCODING 121
SWIDTH 406 0
DWIDTH 7 0
BBX 8 15 -1 -8
BITMAP
190D
1D1D
2C1C
3828
7474
75F4
3FB0
05A0
00A0
00D0
01C0
02C0
0280
0380
0100
ENDCHAR
STARTCHAR z
ENCODING 122
SWIDTH 448 0
DWIDTH 8 0
BBX 10 15 -1 -8
BITMAP
02FF00
024A00
001C00
002800
00A420
02ED80
014E00
00BC00
075800
1D3400
247000
70A000
A1C000
7B4000
290000
ENDCHAR
STARTCHAR braceleft
ENCODING 123
SWIDTH 243 0
DWIDTH 4 0
BBX 7 17 -1 -2
BITMAP
0068
01F4
02C0
0280
0280
0280
0340
0B00
1C00
0900
0900
0C00
2800
3000
7400
7D00
1C00
ENDCHAR
STARTCHAR bar
ENCODING 124
SWIDTH 253 0
DWIDTH 5 0
BBX 5 14 0 -1
BITMAP
0340
0700
0A00
0A00
0D00
1C00
1800
2800
3400
7000
7000
A000
E000
4000
ENDCHAR
STARTCHAR braceright
ENCODING 125
SWIDTH 243 0
DWIDTH 4 0
BBX 7 17 -2 -2
BITMAP
0090
00F4
0078
0034
0070
0090
00C0
01C0
00D0
02D0
0300
0700
0700
0700
0A00
6D00
B400
ENDCHAR
STARTCHAR asciitilde
ENCODING 126
SWIDTH 329 0
DWIDTH 6 0
BBX 7 3 -1 5
BITMAP
0504
7FEC
1054
ENDCHAR
STARTCHAR uni00A0
ENCODING 160
SWIDTH 280 0
DWIDTH 5 0
BBX 1 1 0 0
BITMAP
00
ENDCHAR
STARTCHAR exclamdown
ENCODING 161
SWIDTH 249 0
DWIDTH 4 0
BBX 5 14 0 -1
BITMAP
0780
0500
0100
0A00
0D00
1D00
2C00
2800
3800
7400
B000
F000
E000
4000
ENDCHAR
STARTCHAR cent
ENCODING 162
SWIDTH 322 0
DWIDTH 6 0
BBX 6 13 0 0
BITMAP
0080
01C0
0A60
1870
34F0
A090
D000
D000
C000
D040
7A00
2800
2000
ENDCHAR
STARTCHAR sterling
ENCODING 163
SWIDTH 318 0
DWIDTH 6 0
BBX 8 12 -1 1
BITMAP
0010
01EC
0349
061C
0A24
0900
2E40
2E40
2800
3400
6550
BA90
ENDCHAR
STARTCHAR currency
ENCODING 164
SWIDTH 347 0
DWIDTH 6 0
BBX 7 7 0 3
BITMAP
1010
2AB4
19D0
24C0
3680
A9D0
4050
ENDCHAR
STARTCHAR yen
ENCODING 165
SWIDTH 326 0
DWIDTH 6 0
BBX 7 11 0 1
BITMAP
2408
2428
2870
18D0
0E40
0A00
6E40
1D00
BE00
2800
2400
ENDCHAR
STARTCHAR brokenbar
ENCODING 166
SWIDTH 253 0
DWIDTH 5 0
BBX 5 14 0 -1
BITMAP
0340
0700
0B00
0A00
0D00
0800
0000
2400
3400
7000
7000
A000
E000
4000
ENDCHAR
STARTCHAR section
ENCODING 167
SWIDTH 297 0
DWIDTH 5 0
BBX 8 15 -1 -1
BITMAP
0010
029C
060D
0A18
0700
02C0
1E60
2870
24A0
1E80
0340
21C0
61C0
6280
0500
ENDCHAR
STARTCHAR dieresis
ENCODING 168
SWIDTH 567 0
DWIDTH 10 0
BBX 5 2 4 10
BITMAP
A240
9600
ENDCHAR
STARTCHAR copyright
ENCODING 169
SWIDTH 456 0
DWIDTH 8 0
BBX 9 9 0 4
BITMAP
02A900
1D1300
25E580
635580
A60180
961280
639300
240900
0AA400
ENDCHAR
STARTCHAR ordfeminine
ENCODING 170
SWIDTH 373 0
DWIDTH 7 0
BBX 9 10 -1 -1
BITMAP
019000
06A000
1C7000
246000
34A040
76D200
3D7800
000000
BFF000
550000
ENDCHAR
STARTCHAR guillemotleft
ENCODING 171
SWIDTH 346 0
DWIDTH 6 0
BBX 7 8 -1 -1
BITMAP
0258
0970
29D0
B380
7280
28C0
0C60
0010
ENDCHAR
STARTCHAR logicalnot
ENCODING 172
SWIDTH 512 0
DWIDTH 9 0
BBX 9 5 0 3
BITMAP
015000
BFFF80
500280
000240
000300
ENDCHAR
STARTCHAR sfthyphen
ENCODING 173
SWIDTH 353 0
DWIDTH 6 0
BBX 6 3 0 4
BITMAP
1550
FFF0
4000
ENDCHAR
STARTCHAR registered
ENCODING 174
SWIDTH 456 0
DWIDTH 8 0
BBX 9 9 0 4
BITMAP
02A900
1D5300
269980
616580
A2A180
935280
663700
241D00
0AA400
ENDCHAR
STARTCHAR macron
ENCODING 175
SWIDTH 567 0
DWIDTH 10 0
BBX 5 2 4 10
BITMAP
AA40
5500
ENDCHAR
STARTCHAR degree
ENCODING 176
SWIDTH 144 0
DWIDTH 3 0
BBX 3 2 1 10
BITMAP
A4
A4
ENDCHAR
STARTCHAR twosuperior
ENCODING 178
SWIDTH 268 0
DWIDTH 5 0
BBX 6 9 0 5
BITMAP
0140
09D0
28D0
14D0
0280
0600
2800
7500
BB40
ENDCHAR
STARTCHAR threesuperior
ENCODING 179
SWIDTH 262 0
DWIDTH 5 0
BBX 6 9 0 5
BITMAP
0100
1ED0
2890
15C0
0740
0A80
0180
A240
7E00
ENDCHAR
STARTCHAR acute
ENCODING 180
SWIDTH 567 0
DWIDTH 10 0
BBX 4 2 4 10
BITMAP
0A
78
ENDCHAR
STARTCHAR mu
ENCODING 181
SWIDTH 453 0
DWIDTH 8 0
BBX 10 11 -2 -4
BITMAP
010500
0A0D00
0D1D00
1C2C00
2C2820
2C7850
3FDF80
700000
B00000
E00000
400000
ENDCHAR
STARTCHAR paragraph
ENCODING 182
SWIDTH 411 0
DWIDTH 7 0
BBX 9 14 0 -1
BITMAP
017B40
1FFF40
3FE600
7FD900
7FCC00
3FCC00
079800
026400
032400
073000
066000
096000
0D9000
040000
ENDCHAR
STARTCHAR periodcentered
ENCODING 183
SWIDTH 168 0
DWIDTH 3 0
BBX 3 2 0 5
BITMAP
74
A0
ENDCHAR
STARTCHAR cedilla
ENCODING 184
SWIDTH 567 0
DWIDTH 10 0
BBX 3 5 5 -3
BITMAP
50
D0
68
64
40
ENDCHAR
STARTCHAR onesuperior
ENCODING 185
SWIDTH 150 0
DWIDTH 3 0
BBX 4 8 0 5
BITMAP
1D
1C
1C
18
24
30
70
70
ENDCHAR
STARTCHAR ordmasculine
ENCODING 186
SWIDTH 319 0
DWIDTH 6 0
BBX 8 10 -1 -1
BITMAP
0140
0E90
2C62
3D78
36E0
31C0
2B40
0400
BFC0
5400
ENDCHAR
STARTCHAR guillemotright
ENCODING 187
SWIDTH 346 0
DWIDTH 6 0
BBX 7 7 -1 0
BITMAP
2180
18D0
0D60
0A34
1DA0
3580
9700
ENDCHAR
STARTCHAR onequarter
ENCODING 188
SWIDTH 579 0
DWIDTH 10 0
BBX 11 15 -1 -1
BITMAP
000004
074028
0340A0
0701C0
060340
090A00
0D1C38
1C34B4
1CA2A0
01CA30
034FF4
0A00A0
1C00D0
7400D0
100040
ENDCHAR
STARTCHAR onehalf
ENCODING 189
SWIDTH 603 0
DWIDTH 11 0
BBX 11 15 0 -1
BITMAP
000010
0D00A0
0D02C0
0C0740
180D00
282800
2472B4
30D634
728534
0700A0
0D01C0
280700
701D00
E02FD0
400000
ENDCHAR
STARTCHAR threequarters
ENCODING 190
SWIDTH 669 0
DWIDTH 12 0
BBX 12 15 0 -1
BITMAP
010000
1ED01D
289034
15C0A0
0741C0
0A8340
018A1D
A2587C
7E34D8
00A358
01C7FC
074034
0A0070
2C0070
100010
ENDCHAR
STARTCHAR questiondown
ENCODING 191
SWIDTH 413 0
DWIDTH 7 0
BBX 9 15 -1 -1
BITMAP
000100
000B80
000500
000500
000E00
001D00
002C00
02E400
1E0000
380000
B00400
A01D00
E02D00
7AB400
054000
ENDCHAR
STARTCHAR Agrave
ENCODING 192
SWIDTH 552 0
DWIDTH 10 0
BBX 11 21 -2 -4
BITMAP
0000B4
00001C
000000
000010
0001F8
00075C
000D18
002828
007434
00B034
00E074
01D070
02C0B0
07FFF8
6B55E0
0B01D0
0E01D0
2E01D0
3D02D0
7802D0
4001E0
ENDCHAR
STARTCHAR Aacute
ENCODING 193
SWIDTH 552 0
DWIDTH 10 0
BBX 11 20 -2 -4
BITMAP
00002C
0000A4
000010
0001F8
00075C
000D18
002828
007434
00B034
00E074
01D070
02C0B0
07FFF8
6B55E0
0B01D0
0E01D0
2E01D0
3D02D0
7802D0
4001E0
ENDCHAR
STARTCHAR Acircumflex
ENCODING 194
SWIDTH 552 0
DWIDTH 10 0
BBX 12 21 -2 -4
BITMAP
000014
00006D
000186
000010
0001F8
00075C
000D18
002828
007434
00B034
00E074
01D070
02C0B0
07FFF8
6B55E0
0B01D0
0E01D0
2E01D0
3D02D0
7802D0
4001E0
ENDCHAR
STARTCHAR Atilde
ENCODING 195
SWIDTH 552 0
DWIDTH 10 0
BBX 13 20 -2 -4
BITMAP
0001A980
00015A00
00001000
0001F800
00075C00
000D1800
00282800
00743400
00B03400
00E07400
01D07000
02C0B000
07FFF800
6B55E000
0B01D000
0E01D000
2E01D000
3D02D000
7802D000
4001E000
ENDCHAR
STARTCHAR Adieresis
ENCODING 196
SWIDTH 552 0
DWIDTH 10 0
BBX 13 20 -2 -4
BITMAP
0000A240
00009600
00001000
0001F800
00075C00
000D1800
00282800
00743400
00B03400
00E07400
01D07000
02C0B000
07FFF800
6B55E000
0B01D000
0E01D000
2E01D000
3D02D000
7802D000
4001E000
ENDCHAR
STARTCHAR Aring
ENCODING 197
SWIDTH 552 0
DWIDTH 10 0
BBX 11 19 -2 -4
BITMAP
000068
000068
0001F8
00075C
000D18
002828
007434
00B034
00E074
01D070
02C0B0
07FFF8
6B55E0
0B01D0
0E01D0
2E01D0
3D02D0
7802D0
4001E0
ENDCHAR
STARTCHAR AE
ENCODING 198
SWIDTH 869 0
DWIDTH 16 0
BBX 18 18 -2 -4
BITMAP
0000100100
0001F87AD0
00075ED0A0
000D1F40A0
00282E00E0
00743E03C0
00B03E0000
00E07F0000
01D0779400
02C0BBB400
07FFF80000
6B55F00000
0B01E00040
0E01E00200
2E01F00600
3D02F82C00
7802FFE000
4001E10000
ENDCHAR
STARTCHAR Ccedilla
ENCODING 199
SWIDTH 548 0
DWIDTH 10 0
BBX 10 21 0 -7
BITMAP
000500
007ED0
01E0A0
0780B0
0F00F0
1E01E0
2C02D0
380000
740000
B40000
F00000
F00000
F00000
F00100
B40600
382800
1FE000
070000
0B8000
00D000
064000
ENDCHAR
STARTCHAR Egrave
ENCODING 200
SWIDTH 523 0
DWIDTH 9 0
BBX 11 21 -1 -4
BITMAP
000100
000780
0001A0
000140
002EB0
00E028
03C038
078074
0B41F0
0B4040
078000
01E400
02ED00
1E0000
380000
740040
B40080
780240
3D1A00
1BF800
004000
ENDCHAR
STARTCHAR Eacute
ENCODING 201
SWIDTH 523 0
DWIDTH 9 0
BBX 11 20 -1 -4
BITMAP
0000B0
000390
000140
002EB0
00E028
03C038
078074
0B41F0
0B4040
078000
01E400
02ED00
1E0000
380000
740040
B40080
780240
3D1A00
1BF800
004000
ENDCHAR
STARTCHAR Ecircumflex
ENCODING 202
SWIDTH 523 0
DWIDTH 9 0
BBX 11 21 -1 -4
BITMAP
000050
0002B0
000624
000140
002EB0
00E028
03C038
078074
0B41F0
0B4040
078000
01E400
02ED00
1E0000
380000
740040
B40080
780240
3D1A00
1BF800
004000
ENDCHAR
STARTCHAR Edieresis
ENCODING 203
SWIDTH 523 0
DWIDTH 9 0
BBX 11 20 -1 -4
BITMAP
000628
000514
000140
002EB0
00E028
03C038
078074
0B41F0
0B4040
078000
01E400
02ED00
1E0000
380000
740040
B40080
780240
3D1A00
1BF800
004000
ENDCHAR
STARTCHAR Igrave
ENCODING 204
SWIDTH 537 0
DWIDTH 10 0
BBX 12 21 -2 -4
BITMAP
000040
0000E0
00002C
000000
0001F8
000798
000F28
001E28
001D38
001C74
001CB0
000DB0
0004E0
006AF9
0BE6C0
2D0380
780740
780A00
2D1C00
0BB400
004000
ENDCHAR
STARTCHAR Iacute
ENCODING 205
SWIDTH 537 0
DWIDTH 10 0
BBX 12 20 -2 -4
BITMAP
00001D
000074
000010
0001F8
000798
000F28
001E28
001D38
001C74
001CB0
000DB0
0004E0
006AF9
0BE6C0
2D0380
780740
780A00
2D1C00
0BB400
004000
ENDCHAR
STARTCHAR Icircumflex
ENCODING 206
SWIDTH 537 0
DWIDTH 10 0
BBX 13 21 -2 -4
BITMAP
00000400
00002A00
00009240
00000000
0001F800
00079800
000F2800
001E2800
001D3800
001C7400
001CB000
000DB000
0004E000
006AF900
0BE6C000
2D038000
78074000
780A0000
2D1C0000
0BB40000
00400000
ENDCHAR
STARTCHAR Idieresis
ENCODING 207
SWIDTH 537 0
DWIDTH 10 0
BBX 13 20 -2 -4
BITMAP
0000A240
00009600
00000000
0001F800
00079800
000F2800
001E2800
001D3800
001C7400
001CB000
000DB000
0004E000
006AF900
0BE6C000
2D038000
78074000
780A0000
2D1C0000
0BB40000
00400000
ENDCHAR
STARTCHAR Eth
ENCODING 208
SWIDTH 632 0
DWIDTH 11 0
BBX 12 18 -1 -4
BITMAP
000400
01FF90
0391B4
01102C
00E01D
01E00E
01D00E
02C00E
2BE81E
6B942D
07402C
070078
0A00B0
0E01D0
1D0780
2C1E00
2FF400
010000
ENDCHAR
STARTCHAR Ntilde
ENCODING 209
SWIDTH 541 0
DWIDTH 10 0
BBX 13 19 -1 -3
BITMAP
001A5400
0015A000
00000100
01D01F40
02D03A40
03D07240
07D0A600
06A1FC00
0AA2E000
0DA1C000
1C61C000
1C628000
28628000
38634000
74774000
743B0000
B43E0000
B42E0000
B41D0000
ENDCHAR
STARTCHAR Ograve
ENCODING 210
SWIDTH 567 0
DWIDTH 10 0
BBX 10 21 0 -4
BITMAP
000400
001E00
000680
001400
00BF40
02E280
0741C0
0E01D0
1D01D0
2C01D0
3801D0
7401C0
B002C0
B00280
B00340
B00740
B00E00
B01D00
747400
2EE000
050000
ENDCHAR
STARTCHAR Oacute
ENCODING 211
SWIDTH 567 0
DWIDTH 10 0
BBX 10 20 0 -4
BITMAP
000780
001E00
001400
00BF40
02E280
0741C0
0E01D0
1D01D0
2C01D0
3801D0
7401C0
B002C0
B00280
B00340
B00740
B00E00
B01D00
747400
2EE000
050000
ENDCHAR
STARTCHAR Ocircumflex
ENCODING 212
SWIDTH 567 0
DWIDTH 10 0
BBX 10 21 0 -4
BITMAP
000100
001F80
002580
001400
00BF40
02E280
0741C0
0E01D0
1D01D0
2C01D0
3801D0
7401C0
B002C0
B00280
B00340
B00740
B00E00
B01D00
747400
2EE000
050000
ENDCHAR
STARTCHAR Otilde
ENCODING 213
SWIDTH 567 0
DWIDTH 10 0
BBX 10 20 0 -4
BITMAP
006950
005680
001400
00BF40
02E280
0741C0
0E01D0
1D01D0
2C01D0
3801D0
7401C0
B002C0
B00280
B00340
B00740
B00E00
B01D00
747400
2EE000
050000
ENDCHAR
STARTCHAR Odieresis
ENCODING 214
SWIDTH 567 0
DWIDTH 10 0
BBX 10 20 0 -4
BITMAP
002590
002180
001400
00BF40
02E280
0741C0
0E01D0
1D01D0
2C01D0
3801D0
7401C0
B002C0
B00280
B00340
B00740
B00E00
B01D00
747400
2EE000
050000
ENDCHAR
STARTCHAR multiply
ENCODING 215
SWIDTH 281 0
DWIDTH 5 0
BBX 7 7 -1 3
BITMAP
0400
0D38
0AA0
0780
0B00
2A40
61C0
ENDCHAR
STARTCHAR Oslash
ENCODING 216
SWIDTH 597 0
DWIDTH 11 0
BBX 12 18 -1 -4
BITMAP
000505
002FFC
00B878
01D0B4
02C1F4
0742B8
0B0778
0E0E34
0E1C74
1D3474
1DB0B0
2DD0E0
2EC1D0
2F42C0
1F0740
1E0E00
3FB800
655000
ENDCHAR
STARTCHAR Ugrave
ENCODING 217
SWIDTH 574 0
DWIDTH 10 0
BBX 11 21 0 -4
BITMAP
000400
001E00
000680
000000
02C03C
078078
0B40B4
0F00F0
1E01E0
1D01D0
2C02C0
380380
340340
740740
B00B00
B00F00
A01E00
B03E00
B4AA00
7F8700
040000
ENDCHAR
STARTCHAR Uacute
ENCODING 218
SWIDTH 574 0
DWIDTH 10 0
BBX 11 20 0 -4
BITMAP
0001D0
000740
000000
02C03C
078078
0B40B4
0F00F0
1E01E0
1D01D0
2C02C0
380380
340340
740740
B00B00
B00F00
A01E00
B03E00
B4AA00
7F8700
040000
ENDCHAR
STARTCHAR Ucircumflex
ENCODING 219
SWIDTH 574 0
DWIDTH 10 0
BBX 11 21 0 -4
BITMAP
000140
000AC0
001890
000000
02C03C
078078
0B40B4
0F00F0
1E01E0
1D01D0
2C02C0
380380
340340
740740
B00B00
B00F00
A01E00
B03E00
B4AA00
7F8700
040000
ENDCHAR
STARTCHAR Udieresis
ENCODING 220
SWIDTH 574 0
DWIDTH 10 0
BBX 11 20 0 -4
BITMAP
0018A0
002490
000000
02C03C
078078
0B40B4
0F00F0
1E01E0
1D01D0
2C02C0
380380
340340
740740
B00B00
B00F00
A01E00
B03E00
B4AA00
7F8700
040000
ENDCHAR
STARTCHAR Yacute
ENCODING 221
SWIDTH 532 0
DWIDTH 10 0
BBX 10 20 0 -4
BITMAP
000280
000E00
000000
0740B0
0B00F0
0E01E0
1D01D0
2C02C0
280380
380740
740B40
701F00
742A00
3ED900
1A4D00
001C00
103400
B9E000
BF8000
040000
ENDCHAR
STARTCHAR Thorn
ENCODING 222
SWIDTH 569 0
DWIDTH 10 0
BBX 11 16 -1 -3
BITMAP
00A000
01D000
02C000
02FFD0
0B80B4
1F4038
0B0038
0A0078
0E0074
1D00E0
1C02C0
2C1E00
3EE400
390000
740000
B40000
ENDCHAR
STARTCHAR germandbls
ENCODING 223
SWIDTH 495 0
DWIDTH 9 0
BBX 10 21 -2 -9
BITMAP
001B40
0079D0
00A1D0
00D2C0
01C340
028600
034700
070380
0A01D0
6D00A0
0E1C70
199E90
289600
346000
707000
60A000
A0D000
D2C000
DB4000
FD0000
500000
ENDCHAR
STARTCHAR agrave
ENCODING 224
SWIDTH 435 0
DWIDTH 8 0
BBX 10 12 -1 -1
BITMAP
02D000
006400
000000
005000
02F000
0A2800
1C2800
383420
347090
75B140
3E3E00
000400
ENDCHAR
STARTCHAR aacute
ENCODING 225
SWIDTH 435 0
DWIDTH 8 0
BBX 10 12 -1 -1
BITMAP
002800
01E000
000000
005000
02F000
0A2800
1C2800
383420
347090
75B140
3E3E00
000400
ENDCHAR
STARTCHAR acircumflex
ENCODING 226
SWIDTH 435 0
DWIDTH 8 0
BBX 10 12 -1 -1
BITMAP
001000
00A800
024900
005000
02F000
0A2800
1C2800
383420
347090
75B140
3E3E00
000400
ENDCHAR
STARTCHAR atilde
ENCODING 227
SWIDTH 435 0
DWIDTH 8 0
BBX 10 11 -1 -1
BITMAP
06A600
055900
005000
02F000
0A2800
1C2800
383420
347090
75B140
3E3E00
000400
ENDCHAR
STARTCHAR adieresis
ENCODING 228
SWIDTH 435 0
DWIDTH 8 0
BBX 10 11 -1 -1
BITMAP
018A00
014900
005000
02F000
0A2800
1C2800
383420
347090
75B140
3E3E00
000400
ENDCHAR
STARTCHAR aring
ENCODING 229
SWIDTH 435 0
DWIDTH 8 0
BBX 10 11 -1 -1
BITMAP
00A000
00A000
005000
02F000
0A2800
1C2800
383420
347090
75B140
3E3E00
000400
ENDCHAR
STARTCHAR ae
ENCODING 230
SWIDTH 594 0
DWIDTH 11 0
BBX 13 9 -1 -1
BITMAP
00505000
02F6B000
0A3D7000
1C3CD000
383A4080
34780200
75B81800
3F5EA000
04054000
ENDCHAR
STARTCHAR ccedilla
ENCODING 231
SWIDTH 363 0
DWIDTH 7 0
BBX 8 12 0 -4
BITMAP
0140
1EC0
76C0
A141
D006
D008
D060
BA80
2900
3900
0700
2900
ENDCHAR
STARTCHAR egrave
ENCODING 232
SWIDTH 372 0
DWIDTH 7 0
BBX 8 12 0 -1
BITMAP
0B40
01C0
0000
0140
0AC0
35C0
B240
E902
E008
E060
7A80
1500
ENDCHAR
STARTCHAR eacute
ENCODING 233
SWIDTH 372 0
DWIDTH 7 0
BBX 8 12 0 -1
BITMAP
01E0
0780
0000
0140
0AC0
35C0
B240
E902
E008
E060
7A80
1500
ENDCHAR
STARTCHAR ecircumflex
ENCODING 234
SWIDTH 372 0
DWIDTH 7 0
BBX 8 12 0 -1
BITMAP
0040
07D0
0860
0140
0AC0
35C0
B240
E902
E008
E060
7A80
1500
ENDCHAR
STARTCHAR edieresis
ENCODING 235
SWIDTH 372 0
DWIDTH 7 0
BBX 8 11 0 -1
BITMAP
0964
0860
0140
0AC0
35C0
B240
E902
E008
E060
7A80
1500
ENDCHAR
STARTCHAR igrave
ENCODING 236
SWIDTH 274 0
DWIDTH 5 0
BBX 6 11 0 0
BITMAP
B400
1900
0000
0000
2800
3800
7400
7020
A090
A240
7D00
ENDCHAR
STARTCHAR iacute
ENCODING 237
SWIDTH 274 0
DWIDTH 5 0
BBX 6 11 0 0
BITMAP
01C0
0A40
0000
0000
2800
3800
7400
7020
A090
A240
7D00
ENDCHAR
STARTCHAR icircumflex
ENCODING 238
SWIDTH 274 0
DWIDTH 5 0
BBX 6 11 0 0
BITMAP
0500
1B40
6180
0000
2800
3800
7400
7020
A090
A240
7D00
ENDCHAR
STARTCHAR idieresis
ENCODING 239
SWIDTH 274 0
DWIDTH 5 0
BBX 6 10 0 0
BITMAP
6580
6140
0000
2800
3800
7400
7020
A090
A240
7D00
ENDCHAR
STARTCHAR eth
ENCODING 240
SWIDTH 393 0
DWIDTH 7 0
BBX 9 13 0 -1
BITMAP
004000
00C000
02FD00
0AA000
006000
1FA000
74E040
B4A600
E9F800
C6C000
D28000
BA0000
140000
ENDCHAR
STARTCHAR ntilde
ENCODING 241
SWIDTH 461 0
DWIDTH 8 0
BBX 11 11 -1 -1
BITMAP
02A600
055900
000000
067800
0EAD00
1E1C04
1C2C14
282860
343580
743E00
001400
ENDCHAR
STARTCHAR ograve
ENCODING 242
SWIDTH 393 0
DWIDTH 7 0
BBX 9 11 0 -1
BITMAP
0B4000
01C000
000000
1F4000
74D040
B49600
E9F800
C6C000
D28000
BA0000
140000
ENDCHAR
STARTCHAR oacute
ENCODING 243
SWIDTH 393 0
DWIDTH 7 0
BBX 9 11 0 -1
BITMAP
01E000
078000
000000
1F4000
74D040
B49600
E9F800
C6C000
D28000
BA0000
140000
ENDCHAR
STARTCHAR ocircumflex
ENCODING 244
SWIDTH 393 0
DWIDTH 7 0
BBX 9 12 0 -1
BITMAP
014000
0AC000
149000
000000
1F4000
74D040
B49600
E9F800
C6C000
D28000
BA0000
140000
ENDCHAR
STARTCHAR otilde
ENCODING 245
SWIDTH 393 0
DWIDTH 7 0
BBX 9 11 0 -1
BITMAP
2A6400
259000
000000
1F4000
74D040
B49600
E9F800
C6C000
D28000
BA0000
140000
ENDCHAR
STARTCHAR odieresis
ENCODING 246
SWIDTH 393 0
DWIDTH 7 0
BBX 9 11 0 -1
BITMAP
196000
185000
000000
1F4000
74D040
B49600
E9F800
C6C000
D28000
BA0000
140000
ENDCHAR
STARTCHAR divide
ENCODING 247
SWIDTH 350 0
DWIDTH 6 0
BBX 6 7 0 3
BITMAP
0100
0740
0100
FFF0
5000
0D00
0400
ENDCHAR
STARTCHAR oslash
ENCODING 248
SWIDTH 406 0
DWIDTH 7 0
BBX 10 10 -1 -2
BITMAP
000900
07F800
0E2410
1D2990
2B6E00
35B400
24B000
2ED000
B50000
400000
ENDCHAR
STARTCHAR ugrave
ENCODING 249
SWIDTH 468 0
DWIDTH 8 0
BBX 10 11 0 -1
BITMAP
0B4000
019000
000000
142400
747400
B0B010
A0B050
D0D080
E1D200
BE7C00
041000
ENDCHAR
STARTCHAR uacute
ENCODING 250
SWIDTH 468 0
DWIDTH 8 0
BBX 10 11 0 -1
BITMAP
00B000
038000
000000
142400
747400
B0B010
A0B050
D0D080
E1D200
BE7C00
041000
ENDCHAR
STARTCHAR ucircumflex
ENCODING 251
SWIDTH 468 0
DWIDTH 8 0
BBX 10 12 0 -1
BITMAP
004000
02B000
092400
000000
142400
747400
B0B010
A0B050
D0D080
E1D200
BE7C00
041000
ENDCHAR
STARTCHAR udieresis
ENCODING 252
SWIDTH 468 0
DWIDTH 8 0
BBX 10 11 0 -1
BITMAP
062800
052400
000000
142400
747400
B0B010
A0B050
D0D080
E1D200
BE7C00
041000
ENDCHAR
STARTCHAR yacute
ENCODING 253
SWIDTH 406 0
DWIDTH 7 0
BBX 8 18 -1 -8
BITMAP
001D
00B4
0000
190D
1D1D
2C1C
3828
7474
75F4
3FB0
05A0
00A0
00D0
01C0
02C0
0280
0380
0100
ENDCHAR
STARTCHAR thorn
ENCODING 254
SWIDTH 451 0
DWIDTH 8 0
BBX 12 21 -2 -8
BITMAP
001000
00B400
00B000
00E000
00D000
01C000
029A00
03A740
038340
070709
0A0A18
0BAD60
0FFF80
1C5400
280000
280000
340000
740000
B00000
A00000
500000
ENDCHAR
STARTCHAR ydieresis
ENCODING 255
SWIDTH 406 0
DWIDTH 7 0
BBX 8 18 -1 -8
BITMAP
0259
0218
0000
190D
1D1D
2C1C
3828
7474
75F4
3FB0
05A0
00A0
00D0
01C0
02C0
0280
0380
0100
ENDCHAR
STARTCHAR dotlessi
ENCODING 305
SWIDTH 274 0
DWIDTH 5 0
BBX 6 7 0 0
BITMAP
2800
3800
7400
7020
A090
A240
7D00
ENDCHAR
STARTCHAR Lslash
ENCODING 321
SWIDTH 492 0
DWIDTH 9 0
BBX 12 17 -2 -4
BITMAP
0000BD
0001DE
00038D
00076C
0007B4
051BD0
06FE00
000D00
001E80
02FE40
027800
007000
00A000
6FD000
A7F420
792FF0
000540
ENDCHAR
STARTCHAR lslash
ENCODING 322
SWIDTH 218 0
DWIDTH 4 0
BBX 6 14 -1 -1
BITMAP
0040
02C0
0380
0380
0740
0B50
BF90
9E00
1D00
1C00
2800
3400
7400
1000
ENDCHAR
STARTCHAR OE
ENCODING 338
SWIDTH 918 0
DWIDTH 17 0
BBX 17 18 0 -4
BITMAP
0014000400
00BF41EB40
02E28B4280
0741ED0280
0E01F80780
1D01F40F00
2C01F40000
3801F80000
7401DE5000
B002EED000
B002E00000
B003C00000
B007800100
B00F800800
B01F801800
747AE0B000
2EE0BF8000
0500040000
ENDCHAR
STARTCHAR oe
ENCODING 339
SWIDTH 583 0
DWIDTH 11 0
BBX 12 9 0 -1
BITMAP
000140
1F8AC0
74F5C0
B4B340
EEFD02
C6E008
D2E064
BA7A80
141500
ENDCHAR
STARTCHAR Scaron
ENCODING 352
SWIDTH 474 0
DWIDTH 9 0
BBX 11 21 -1 -4
BITMAP
000004
000364
000190
000500
00BAD0
02D0A0
0740B0
0B00E0
0B01D0
078000
02D000
00F400
007C00
002D00
001D00
140D00
B00D00
B01C00
B43400
3EE000
050000
ENDCHAR
STARTCHAR scaron
ENCODING 353
SWIDTH 351 0
DWIDTH 6 0
BBX 6 13 0 -1
BITMAP
0410
0EA0
0640
0000
0B00
1E00
1E00
2700
9340
02C0
7180
7A40
1800
ENDCHAR
STARTCHAR Ydieresis
ENCODING 376
SWIDTH 532 0
DWIDTH 10 0
BBX 10 20 0 -4
BITMAP
002590
002180
000000
0740B0
0B00F0
0E01E0
1D01D0
2C02C0
280380
380740
740B40
701F00
742A00
3ED900
1A4D00
001C00
103400
B9E000
BF8000
040000
ENDCHAR
STARTCHAR Zcaron
ENCODING 381
SWIDTH 455 0
DWIDTH 8 0
BBX 11 20 -2 -3
BITMAP
000104
0002A8
000190
000000
01FFF8
02E57C
000038
0000B4
0001E0
000380
000B00
002D00
007400
01E000
038000
0B0000
1D0000
380000
7AFF40
7EAF00
ENDCHAR
STARTCHAR zcaron
ENCODING 382
SWIDTH 349 0
DWIDTH 6 0
BBX 10 19 -3 -8
BITMAP
001000
002A80
000A00
000000
02FF00
024600
000D00
002800
007420
01ED90
018B40
006D00
029C00
0D2800
283400
30B000
71D000
7B8000
2A0000
ENDCHAR
STARTCHAR circumflex
ENCODING 710
SWIDTH 567 0
DWIDTH 10 0
BBX 5 3 4 10
BITMAP
0400
2A00
9240
ENDCHAR
STARTCHAR caron
ENCODING 711
SWIDTH 567 0
DWIDTH 10 0
BBX 4 3 4 10
BITMAP
40
AA
68
ENDCHAR
STARTCHAR breve
ENCODING 728
SWIDTH 567 0
DWIDTH 10 0
BBX 5 3 4 9
BITMAP
C240
BE00
1000
ENDCHAR
STARTCHAR dotaccent
ENCODING 729
SWIDTH 567 0
DWIDTH 10 0
BBX 2 2 5 10
BITMAP
60
50
ENDCHAR
STARTCHAR ring
ENCODING 730
SWIDTH 567 0
DWIDTH 10 0
BBX 3 2 5 10
BITMAP
A4
A0
ENDCHAR
STARTCHAR ogonek
ENCODING 731
SWIDTH 567 0
DWIDTH 10 0
BBX 5 3 4 -2
BITMAP
5000
D140
B900
ENDCHAR
STARTCHAR tilde
ENCODING 732
SWIDTH 567 0
DWIDTH 10 0
BBX 6 2 3 10
BITMAP
6A60
5590
ENDCHAR
STARTCHAR hungarumlaut
ENCODING 733
SWIDTH 567 0
DWIDTH 10 0
BBX 6 2 3 10
BITMAP
1DB0
A690
ENDCHAR
STARTCHAR endash
ENCODING 8211
SWIDTH 353 0
DWIDTH 6 0
BBX 6 3 0 4
BITMAP
1550
FFF0
4000
ENDCHAR
STARTCHAR emdash
ENCODING 8212
SWIDTH 508 0
DWIDTH 9 0
BBX 10 2 -1 5
BITMAP
055540
7FFFE0
ENDCHAR
STARTCHAR quoteleft
ENCODING 8216
SWIDTH 155 0
DWIDTH 3 0
BBX 3 4 0 8
BITMAP
18
34
7C
24
ENDCHAR
STARTCHAR quoteright
ENCODING 8217
SWIDTH 154 0
DWIDTH 3 0
BBX 2 4 1 8
BITMAP
B0
B0
60
40
ENDCHAR
STARTCHAR quotesinglbase
ENCODING 8218
SWIDTH 188 0
DWIDTH 3 0
BBX 3 4 -1 -2
BITMAP
64
B4
30
50
ENDCHAR
STARTCHAR quotedblleft
ENCODING 8220
SWIDTH 289 0
DWIDTH 5 0
BBX 6 4 0 8
BITMAP
1880
3680
7ED0
2580
ENDCHAR
STARTCHAR quotedblright
ENCODING 8221
SWIDTH 288 0
DWIDTH 5 0
BBX 5 5 1 8
BITMAP
1000
B780
B740
6200
4500
ENDCHAR
STARTCHAR quotedblbase
ENCODING 8222
SWIDTH 323 0
DWIDTH 6 0
BBX 5 4 -1 -2
BITMAP
6680
BB80
3280
5200
ENDCHAR
STARTCHAR bullet
ENCODING 8226
SWIDTH 180 0
DWIDTH 3 0
BBX 3 4 0 3
BITMAP
78
F8
F8
A0
ENDCHAR
STARTCHAR ellipsis
ENCODING 8230
SWIDTH 614 0
DWIDTH 11 0
BBX 10 3 -1 -1
BITMAP
141010
78B5F0
105040
ENDCHAR
STARTCHAR perthousand
ENCODING 8240
SWIDTH 851 0
DWIDTH 15 0
BBX 15 14 0 -1
BITMAP
0B807000
28D0D000
30928000
70C60000
719D0000
3F240000
04A00000
01C781E0
035C9724
0A24A928
1D309C24
3831CC70
B02F4BD0
40040100
ENDCHAR
STARTCHAR guilsinglleft
ENCODING 8249
SWIDTH 202 0
DWIDTH 4 0
BBX 5 7 -1 0
BITMAP
0240
0900
2800
B000
7000
2800
0C00
ENDCHAR
STARTCHAR guilsinglright
ENCODING 8250
SWIDTH 202 0
DWIDTH 4 0
BBX 4 7 -1 0
BITMAP
20
18
0D
0A
1D
34
90
ENDCHAR
STARTCHAR fraction
ENCODING 8260
SWIDTH 600 0
DWIDTH 11 0
BBX 10 15 1 -1
BITMAP
000010
0000A0
000280
000700
000D00
002800
007000
00D000
028000
070000
0D0000
280000
700000
D00000
400000
ENDCHAR
STARTCHAR Euro
ENCODING 8364
SWIDTH 334 0
DWIDTH 6 0
BBX 8 11 -1 1
BITMAP
0068
01D6
0341
0B00
2FA0
2D50
BE90
2800
1810
0860
0680
ENDCHAR
STARTCHAR minus
ENCODING 8722
SWIDTH 353 0
DWIDTH 6 0
BBX 6 3 0 4
BITMAP
1550
FFF0
4000
ENDCHAR
STARTCHAR fi
ENCODING 64257
SWIDTH 549 0
DWIDTH 10 0
BBX 13 22 -2 -9
BITMAP
00540000
00B40400
00742C00
00B01400
00A00000
00D00000
01C0A000
0181E000
02EAD000
0B42C080
0E028240
0B428900
0DD1F400
1C700000
18340000
28340000
34340000
70B00000
71D00000
B7800000
BE000000
14000000
ENDCHAR
STARTCHAR fl
ENCODING 64258
SWIDTH 516 0
DWIDTH 9 0
BBX 12 22 -2 -9
BITMAP
005404
00B41D
00742C
00B02C
00A038
00D074
01C070
0180B0
02EAE0
0B40D0
0E01C0
0B42C0
0DD380
1C7100
183400
283400
343400
70B000
71D000
B78000
BE0000
140000
ENDCHAR
STARTCHAR .notdef
ENCODING -1
SWIDTH 280 0
DWIDTH 5 0
BBX 1 1 0 0
BITMAP
00
ENDCHAR
ENDFONT
